<?xml version="1.0" standalone="no"?>
<!DOCTYPE svg PUBLIC "-//W3C//DTD SVG 20010904//EN"
 "http://www.w3.org/TR/2001/REC-SVG-20010904/DTD/svg10.dtd">
<svg version="1.0" xmlns="http://www.w3.org/2000/svg"
 width="707.000000pt" height="707.000000pt" viewBox="0 0 707.000000 707.000000"
 preserveAspectRatio="xMidYMid meet">
<metadata>
Created by potrace 1.14, written by Peter Selinger 2001-2017
</metadata>
<g transform="translate(0.000000,707.000000) scale(0.100000,-0.100000)"
fill="#000000" stroke="none">
<path d="M3308 7065 c-2 -1 -37 -5 -78 -8 -335 -26 -700 -116 -1040 -254 -131
-54 -398 -186 -451 -224 -15 -10 -30 -19 -33 -19 -11 0 -260 -172 -346 -238
-460 -359 -835 -843 -1068 -1382 -127 -294 -223 -636 -258 -920 -3 -25 -8 -56
-9 -70 -27 -189 -27 -652 0 -835 13 -91 25 -172 29 -190 2 -11 7 -40 12 -65 4
-25 8 -47 9 -50 1 -3 5 -21 9 -40 70 -325 216 -701 385 -994 56 -96 184 -295
218 -336 6 -8 43 -54 80 -101 159 -201 368 -412 548 -555 28 -21 52 -41 55
-44 12 -13 152 -112 230 -163 328 -214 702 -377 1067 -467 70 -18 137 -34 148
-36 11 -2 31 -6 45 -9 35 -7 149 -26 190 -31 19 -3 44 -6 56 -8 111 -20 569
-28 732 -13 126 11 332 43 467 71 92 19 408 113 460 136 11 5 56 23 100 41
197 78 473 225 659 351 28 20 219 161 236 175 267 226 423 389 611 640 265
352 462 762 585 1218 14 55 28 114 31 130 2 17 8 46 13 65 5 19 12 55 15 80 4
24 8 47 10 50 2 3 6 34 10 70 4 36 9 74 11 85 26 126 25 690 -1 827 -2 9 -6
41 -9 70 -5 46 -12 83 -42 243 -14 76 -77 301 -112 405 -36 104 -56 157 -109
283 -9 23 -51 107 -91 187 -41 80 -80 155 -86 167 -6 13 -14 23 -18 23 -5 0
-8 5 -8 10 0 28 -257 394 -330 471 -8 8 -38 42 -66 75 -140 161 -428 423 -552
502 -15 9 -29 19 -32 23 -3 3 -48 34 -100 68 -52 33 -99 64 -105 69 -58 44
-397 215 -520 261 -33 13 -73 29 -90 36 -42 19 -201 69 -325 103 -166 47 -328
76 -580 107 -55 7 -555 16 -562 10z"/>
</g>
</svg>
