<svg width="15" height="21" viewBox="0 0 15 21" fill="none" xmlns="http://www.w3.org/2000/svg">
<g clip-path="url(#clip0_221_7109)">
<path d="M1.66667 20.3346C1.20833 20.3346 0.815833 20.1716 0.489167 19.8455C0.163055 19.5188 0 19.1263 0 18.668V7.0013H1.66667V18.668H10.8333V20.3346H1.66667ZM5 17.0013C4.54167 17.0013 4.14944 16.8382 3.82333 16.5121C3.49667 16.1855 3.33333 15.793 3.33333 15.3346V5.33464C3.33333 4.8763 3.49667 4.4838 3.82333 4.15714C4.14944 3.83102 4.54167 3.66797 5 3.66797H12.5C12.9583 3.66797 13.3508 3.83102 13.6775 4.15714C14.0036 4.4838 14.1667 4.8763 14.1667 5.33464V15.3346C14.1667 15.793 14.0036 16.1855 13.6775 16.5121C13.3508 16.8382 12.9583 17.0013 12.5 17.0013H5Z" fill="currentColor"/>
</g>
<defs>
<clipPath id="clip0_221_7109">
<rect width="14.1667" height="19.6667" fill="currentColor" transform="translate(0 0.667969)"/>
</clipPath>
</defs>
</svg>